<svg id="Layer_1" data-name="Layer 1" xmlns="http://www.w3.org/2000/svg" viewBox="0 0 600 271.82"><defs><style>.cls-1{fill:#90c63e;}.cls-2{fill:#fff;}.cls-3{fill:#00703c;}</style></defs><title>EXR Primary Logo-01</title><path class="cls-1" d="M299.94,0C172.12,0,82.58,20.82,0,54.71V217C73.54,249.63,179,271.82,299.9,271.82c123.33,0,226.7-23,300.09-54.9V54.73C516.24,20.82,425.89,0,299.94,0Z"/><path class="cls-2" d="M299.75,12.54c-124,0-220.38,22.83-287.27,50.84V208.2C84,237.83,178.93,259.25,299.71,259.25c122.45,0,219.86-21.82,287.8-50.93V63.39C521.32,36.24,426.82,12.54,299.75,12.54Zm0,8c58.24,0,113.81,5.08,165.17,15.1,40.87,8,79.39,19.11,114.58,33.14V203C545,217.29,505.7,228.66,462.57,236.8c-50.62,9.57-105.42,14.41-162.86,14.41-105.58,0-199.48-16.29-279.2-48.42v-134C75.84,46.29,168,20.57,299.75,20.57"/><path class="cls-2" d="M532,77.62a6,6,0,1,1,6-6,6,6,0,0,1-6,6Zm0-13.91a7.95,7.95,0,1,0,8,7.94,8,8,0,0,0-8-7.94Z"/><path class="cls-2" d="M531.85,70.62h-1.07V69.06h1.27a1.42,1.42,0,0,1,.85.18.54.54,0,0,1,.18.48c-.06.52-.11.82-1.23.9Zm2.09,1a2,2,0,0,0,1.15-1.86,2.06,2.06,0,0,0-1.05-2,4.37,4.37,0,0,0-2.15-.46h-2.83v8.37h1.73V72.31h.81c.46,0,.78,0,1,.26s.31.84.39,1.54c.06.48.19,1,.27,1.43l0,.18h2.11a14.67,14.67,0,0,1-.56-2.54,1.75,1.75,0,0,0-.9-1.54Z"/><polygon points="130.18 81.85 102.63 81.85 102.63 85.85 99.43 85.85 99.43 74.96 128.19 74.96 128.2 61.53 130.93 68.74 130.94 75.58 130.5 75.55 144.05 99.89 142.2 103.25 130.18 81.85"/><polygon points="172.04 75.55 172.83 85.41 161.89 105.44 158.78 99.93 172.04 75.55"/><polygon points="99.43 99.25 120.33 99.25 120.31 85.84 123.13 93.31 123.13 105.83 102.61 105.83 102.61 112.64 99.43 112.64 99.43 99.25"/><polygon points="157.17 132.59 151.04 120.45 145.13 132.59 87.74 132.59 84.34 126.01 129.11 126.01 129.11 112.62 131.73 119.31 131.73 122.15 129.59 126.01 145.53 125.98 151.6 113.63 157.81 125.97 173.26 125.97 175.21 132.59 157.17 132.59 157.17 132.59"/><polygon points="194.71 75.66 194.68 61.99 196.39 70.24 196.39 75.66 194.71 75.66"/><polygon points="176.68 95.5 174.43 88.44 180.53 88.44 180.53 95.5 176.68 95.5 176.68 95.5"/><path d="M194.84,113.84l-.13-1,0-24.43h8.6l0-12.79,1.56,8.12V95.46h-8.5V114.2s-1.27,0-1.53-.36Z"/><path d="M203.35,112.81v11.6h0v1.64l-.81.11s-6.23.83-9.32.83h0c-4.19,0-7.49-1.13-9.67-3.48a10.89,10.89,0,0,1-2.44-4.6h0l2,6.78a10.28,10.28,0,0,0,2.4,4.44c2.14,2.3,5.35,3.41,9.43,3.41H195c3,0,9.15-.8,9.16-.8l.82-.1v-12l-1.62-7.87Z"/><path d="M234.84,74.71h0V90.64l-1.11-.2-1-.19a8.69,8.69,0,0,0-1.41-.07h-.33c-1.7,0-3.69,1.18-5.23,2.62A13.4,13.4,0,0,0,223.1,96v30.09H209l1.65,6.58h13.76V103a13.08,13.08,0,0,1,2.57-3.16c1.51-1.42,3.47-2.59,5.12-2.57h.43a6.76,6.76,0,0,1,1.25.07l1,.19,1.11.2V82.89l-1-8.18Z"/><path d="M277.25,126.09H263l-.47-2.79A22.38,22.38,0,0,1,250.2,127h-.14a13.17,13.17,0,0,1-10.31-4.46,14.47,14.47,0,0,1-3.17-6.83l1,6.3a14.45,14.45,0,0,0,3.19,7.19,12.91,12.91,0,0,0,10.11,4.36H251A22.1,22.1,0,0,0,263.1,130l.46,2.73h13.83l-.14-6.6Z"/><path d="M245.22,97.67c4.14-2.39,9.62-4,16.36-4.92V90.48c-.09-2.46-1.39-3.52-4.6-3.69-4.2,0-6.19,2.15-8.19,4.94l-1.11,1.61-9.51-7.68L239.49,93l5.73,4.63Z"/><path d="M250.48,111.34c.11,1.67.49,2.58,1.28,3.08a9.2,9.2,0,0,1,2.78-2,32.16,32.16,0,0,1,7-2.16v-6a33.18,33.18,0,0,0-7.39,2.24c-2.54,1.32-3.65,2.52-3.72,4.93Z"/><path d="M286.13,76.23c0,.3.06,1.81.29,7.71.41,11,8.86,15.84,16.62,19.22h0c6.06,2.55,11.61,4.92,13.53,7.74a6.81,6.81,0,0,0,1.15-4.11v-.18c.24-4.16-6.59-7.11-14.65-10.44-7.87-3.41-16.9-8.26-16.91-19.51,0-.27,0-.52,0-.77-.12.4-.05.24-.07.34Z"/><path d="M331,81.72l.8-7.4-.24.08-1.29.43L317.59,79l-.31-.85L317,77.3c-1.69-4.53-4.51-7.15-9.2-7.21-4.78.24-6.78,1.46-6.92,5.38a1.23,1.23,0,0,0,0,.17c0,1,.61,2,1.87,3.07a8.81,8.81,0,0,1,5-1.26c4.62.07,7.37,2.63,9,7.1l.28.8.07.2L318,86l1-.32,12-4Z"/><path d="M332.26,107.94c-.48,5.7-2.57,10.34-6.14,13.58-4.1,3.74-9.95,5.47-17,5.47h0c-10.67,0-20.83-6.33-24.61-16.57l-.62-1.62h0l.58,7.43.36,1c3.73,10.12,13.71,16.35,24.21,16.35,6.94,0,12.69-1.69,16.74-5.36,3.51-3.19,5.57-7.77,6-13.4l.51-6.82v0Z"/><polygon points="338.36 149.5 338.41 143.12 352.55 143.12 351.67 149.5 338.36 149.5 338.36 149.5"/><path d="M361.58,127a17.12,17.12,0,0,1-9-3v7.12a16.77,16.77,0,0,0,8.07,2.48c10.93-.05,17.44-9.61,18.9-19.84l1-5.55a2.34,2.34,0,0,1,0-.26h0c-1.77,10-8.19,19-18.94,19.1Z"/><path d="M366.62,104.72c.13-1.16.23-2.43.27-3.84-.19-9.61-3.05-13.32-8-13.39-3.45.07-4.24,1.31-6.33,3.15v5.09a7.32,7.32,0,0,1,5.42-2c4.92,0,8,3.57,8.64,11Z"/><path d="M412.15,126.09l-.46-2.79A22.41,22.41,0,0,1,399.37,127h-.12a13.11,13.11,0,0,1-10.31-4.45,15,15,0,0,1-3.45-9.84,19.32,19.32,0,0,1,.3-3.28h0l-1.17,6a18.44,18.44,0,0,0-.41,4,15,15,0,0,0,3.39,9.73,12.94,12.94,0,0,0,10.12,4.36h.15a22.15,22.15,0,0,0,12.09-3.59l.45,2.73h13.54l2.53-6.58H412.15Z"/><polygon points="426.43 126.13 426.44 126.12 426.42 126.09 426.43 126.13"/><path d="M399.88,95.21a8.26,8.26,0,0,1,4.56-1.3q3-.69,6.33-1.16V90.48c-.1-2.46-1.38-3.52-4.64-3.71-4.18.06-6.17,2.16-8.16,5l-1.11,1.62-9.48-7.65-1.21,7.23,6.89,5.59a30,30,0,0,1,6.82-3.3Z"/><path d="M410,109.88v1.77l.79-.63v-6.86a33.66,33.66,0,0,0-7.4,2.23c-2.53,1.33-3.64,2.53-3.7,4.94a6.39,6.39,0,0,0,.35,1.84,11.47,11.47,0,0,1,1.35-.81,38.62,38.62,0,0,1,8.61-2.48Z"/><path d="M471.81,112.69l-.4.79-.4.79c-4.27,8.64-10.42,12.76-18.78,12.72h-.48a18.85,18.85,0,0,1-15.46-7.3c-3.63-4.65-5.5-11.1-5.5-18.81A38.48,38.48,0,0,1,432,91.1L430.25,97a37.59,37.59,0,0,0-1.48,10.82c0,7.57,1.83,14,5.4,18.57a18.55,18.55,0,0,0,15.16,7.18h.34c.1,0,.15,0,.19,0H450c8.17,0,14.19-4.07,18.34-12.55l.41-.79,3.06-7.54Z"/><path d="M459.41,95.13l-.36-.86-.34-.78c-1.83-4-2.78-5.88-7-6a5.19,5.19,0,0,0-5,2.83,16.17,16.17,0,0,0-1.62,6.16,5.11,5.11,0,0,1,4.24-1.86c4.11.12,5,2,6.84,5.9l.33.78.36.85,1.63-.67,9.74-4,3.09-7.23-.11,0-10.2,4.2-1.66.67Z"/><path d="M501.77,93.27c-.73-4.52-2.84-6.36-6.45-6.48h0c-3.46.12-5.55,1.79-6.37,5.87h0a8.6,8.6,0,0,1,3.31-.63h0a8.08,8.08,0,0,1,4.42,1.24h5.09Z"/><path d="M515,116.56c-4.32,7.19-11.1,10.45-19.89,10.43H495a18.33,18.33,0,0,1-15.05-7.32c-3.54-4.63-5.42-11.08-5.42-18.79a36.5,36.5,0,0,1,2-12.34L474,94.74a35.22,35.22,0,0,0-2.28,13.07c0,7.57,1.85,14,5.34,18.55a18,18,0,0,0,14.69,7.19H492c8.64,0,15.31-3.16,19.57-10.28l.48-.79,3.37-6.67,0,0-.45.77Z"/><path d="M515.23,104.56H488.75a15.29,15.29,0,0,0,2,6.86h11.86c.58-.6,1.17-1.28,1.82-2.07l1-1.26,5.08,3.33h1l3.7-6.86Z"/><path class="cls-2" d="M234.76,74.74l-1.88.05a14.06,14.06,0,0,0-10.67,4.69v-3.8H208.88v50.44h14.17V96a13.4,13.4,0,0,1,2.61-3.2c1.54-1.43,3.53-2.63,5.23-2.62h.32a7.71,7.71,0,0,1,1.4.07l1,.18,1.11.2V74.74Z"/><path class="cls-2" d="M261.54,111.05c-2.1,1.77-5.72,4-7.77,3.91h-.08c-2.19-.17-3.08-.88-3.26-3.59.06-2.41,1.17-3.61,3.7-4.94a33.46,33.46,0,0,1,7.4-2.23v6.85Zm14.91,12.59a20.28,20.28,0,0,1-.75-6.16V94.89c0-7-1.5-12.06-4.72-15.37s-8-4.68-14-4.72h-.47c-7,.07-14.42,3.88-17.59,9.48l-.4.72-.39.7,9.54,7.69,1.11-1.61c2-2.79,4-4.9,8.19-4.94,3.2.18,4.52,1.24,4.6,3.7v2.29c-16.23,2.19-25.29,8.38-25.27,19.92a15,15,0,0,0,3.45,9.85A13.17,13.17,0,0,0,250,127h.13a22.34,22.34,0,0,0,12.31-3.69l.47,2.8h14.32l-.79-2.51Z"/><path class="cls-2" d="M203.29,112.86l-2.23.55a20.9,20.9,0,0,1-4.41.85h-.1a3.68,3.68,0,0,1-1.68-.27,2.14,2.14,0,0,1-.23-1.1V88.43h8.61V75.7h-8.61V62H180.48V75.58h-6.13l0,12.84h6.11v25.84a.41.41,0,0,0,0,.12c0,3.57.83,6.8,3,9.14S189,127,193.16,127h0c3.07,0,9.29-.83,9.32-.83l.81-.1V112.86Z"/><polygon class="cls-2" points="157.75 126.03 173.2 126.03 158.76 99.92 172 75.58 156.55 75.59 151.42 86.17 146.35 75.59 130.46 75.59 143.98 99.93 129.52 126.03 145.5 126.03 151.52 113.69 157.75 126.03"/><path class="cls-2" d="M309.14,113.53c-6.06-.09-8.82-3.17-11.64-9l-.39-.82-.4-.84-12.89,6,.63,1.64c3.8,10.24,13.95,16.57,24.61,16.57h0c7.05,0,12.9-1.73,17-5.47s6.26-9.3,6.26-16.24v-.07c0-11.7-9-17-16.88-20.34-4-1.68-7.78-3.12-10.49-4.64s-4.2-3.07-4.16-4.59a1.44,1.44,0,0,1,0-.18c.13-3.91,2.14-5.13,6.91-5.37,4.71.06,7.53,2.67,9.22,7.21l.29.81.31.87,12.63-4.14,1.29-.43.28-.1-.28-.72-.3-.81-.14-.34h0c-3.88-10.12-12.82-15.83-23.26-15.81h-.09c-11.22,0-21.57,7.23-21.56,20,0,11.25,9,16.1,16.91,19.51,8.06,3.35,14.89,6.28,14.65,10.45v.19c-.1,5.08-2.95,6.47-8.54,6.72Z"/><polygon class="cls-2" points="99.42 99.29 120.28 99.3 120.28 85.86 99.42 85.86 99.42 74.99 128.15 74.99 128.15 61.55 84.1 61.55 84.1 126 129.07 126.04 129.07 112.65 99.42 112.65 99.42 99.29"/><path class="cls-2" d="M459.74,107.84c-2.11,4-4.14,6.4-7.71,6.4-2.57,0-4.09-.83-5.27-2.82s-1.83-5.44-1.89-10.54.71-8.54,1.86-10.56a5.21,5.21,0,0,1,5-2.83c4.18.12,5.13,2,7,6l.34.78.36.86,1.65-.67,10.32-4.25-.53-1.67a19.32,19.32,0,0,0-19.08-13.79h-.1A18.94,18.94,0,0,0,436.21,82h0c-3.63,4.66-5.5,11.14-5.5,18.86s1.87,14.16,5.5,18.81a18.89,18.89,0,0,0,15.46,7.3h.49c8.36,0,14.53-4.09,18.78-12.72l.4-.79.4-.79-11.14-6.61-.86,1.76Z"/><path class="cls-2" d="M358.84,114.26h0a9.45,9.45,0,0,1-6.29-2.91V90.66c2.1-1.83,2.88-3.07,6.33-3.13,4.94.07,7.81,3.78,8,13.39-.18,9.56-3,13.26-8,13.34Zm2.7-39.47h0a15.85,15.85,0,0,0-9.41,3V75.7H338.35v67.47h14.16V124a17.11,17.11,0,0,0,9,3c12.82-.1,19.49-12.85,19.48-24.85,0-14.93-6.34-27.34-19.46-27.39Z"/><path class="cls-2" d="M495.24,86.8c3.62.12,5.75,2,6.46,6.49H488.78c.72-4.53,2.84-6.36,6.46-6.49Zm10.14,21.3-1,1.27c-2.7,3.19-4.15,4.79-8.44,4.89-3.56-.14-6.47-2-7.21-9.67h26.51V98.14c0-11.82-7-23.3-19.66-23.34h-.19a19,19,0,0,0-15.45,7.26h0c-3.62,4.65-5.49,11.14-5.49,18.86s1.87,14.16,5.41,18.79A18.31,18.31,0,0,0,494.88,127H495c8.78,0,15.56-3.23,19.88-10.43l.5-.79.48-.79-10.51-6.9Z"/><path class="cls-2" d="M410.73,111.05c-2.11,1.77-5.06,4-7.1,3.91h-.74c-2.21-.18-3.09-.88-3.26-3.59.06-2.41,1.17-3.61,3.7-4.94a33.29,33.29,0,0,1,7.4-2.23v6.85Zm14.91,12.58a20,20,0,0,1-.75-6.16V94.88c0-7-1.5-12.07-4.72-15.38s-8-4.68-14.06-4.72a3.39,3.39,0,0,0-.46,0c-7,.07-14.41,3.88-17.59,9.48l-.39.73-.39.69,9.54,7.69,1.11-1.62c2-2.79,4-4.89,8.16-4.94,3.25.18,4.54,1.24,4.64,3.7v2.29c-16.22,2.19-25.29,8.38-25.27,19.92a15,15,0,0,0,3.45,9.85A13.19,13.19,0,0,0,399.23,127h.12a22.49,22.49,0,0,0,12.31-3.68l.46,2.79h14.34l-.82-2.48Z"/><polygon class="cls-3" points="426.44 126.06 426.42 126.04 426.43 126.08 426.44 126.06"/><polygon class="cls-2" points="449.07 200.77 449.07 200.76 449.05 200.76 449.07 200.77"/><path d="M192.26,194.07h0l-1.51-5h0a22.46,22.46,0,0,1,.53,5.18v.32c0,12.95-11,20.08-22.57,20.06h-.53c-11.08,0-18.87-4.83-23.25-14l3.17,6.94c4.33,8.64,11.83,13.1,22.3,13.1h.46c11.35,0,22.07-7.13,22.07-20.06v-.38a24.26,24.26,0,0,0-.66-6.18Z"/><path d="M148.26,173.29s1.71,3,2.78,4.47h0c3.13,4.32,9.84,7,15.33,9.08,4.47,1.64,8.79,3.15,11.74,5.17a12.86,12.86,0,0,1,2.69,2.44c0-.19,0-.35,0-.54-.06-3.78-1.64-5.84-4.69-7.94s-7.46-3.53-12-5.18c-7-2.47-14.92-5.72-18.1-13.06h0l2.26,5.49v.07Z"/><path d="M190.11,160.61l-9.35,2.82-.31-1-.35-1c-2.36-7-6.52-11.17-14.08-11.26-7,.21-10.86,3.42-11,10.29,0,2,.1,3.21,1.56,4.76a7.83,7.83,0,0,0,1,.87c.35-6.56,4.05-9.67,10.71-9.88,7.36.09,11.42,4.25,13.74,11.22l.32,1.1.29,1,9.2-2.83-1.68-6.06Z"/><polygon points="189.85 159.74 189.56 158.72 189.55 158.74 189.85 159.74"/><polygon points="215.47 160.18 215.44 144.48 216.59 150.25 216.59 160.18 215.47 160.18"/><polygon points="200.38 174.95 198.53 168.89 205.68 168.89 205.68 174.95 200.38 174.95 200.38 174.95"/><path d="M226.91,167.06l-1.08-6.85v8.69H215.45v33.4a3.05,3.05,0,0,0,.44,1.86,1.9,1.9,0,0,0,1.06.4,2,2,0,0,0-.07-.22,10.28,10.28,0,0,1-.3-3.31l0-26.1h10.34v-7.79l0-.08Z"/><polygon points="225.83 202.93 225.83 202.91 225.82 202.93 225.83 202.93"/><path d="M225.83,202.87v9.38l-.87.13-1,.15a41.07,41.07,0,0,1-5.9.86c-4.06,0-7.18-.65-9.45-2.53a8.09,8.09,0,0,1-2.28-3.31l1,3.8a11.09,11.09,0,0,0,3.57,5.54c2.21,1.9,5.27,2.53,9.26,2.53a25,25,0,0,0,4.72-.58l1.27-.24.83-.16v-8.37l-1.23-7.2Z"/><path d="M275.38,188.72h.26l-.27-4.45h0c0,.79.06,1.57.06,2.38,0,6.64-1.18,13.18-4.52,18.25h0c-3.29,5.08-8.94,8.42-16.72,8.42h-.23c-7.81,0-13.45-3.35-16.76-8.42a26.77,26.77,0,0,1-3.61-9.09l.93,5.19a27.7,27.7,0,0,0,3.69,9.93c3.23,5.1,8.77,8.46,16.42,8.44h.22c7.61,0,13.13-3.35,16.34-8.44s4.39-11.58,4.4-18.24l-.15-.05h.15c0-.62,0-2.37,0-3.37v-.52h-.26s0,0,0,0Z"/><path d="M254,168.6c-8.19.13-11.45,5.44-11.73,18a41.7,41.7,0,0,0,1.08,9.3c-.07-1-.12-2.11-.13-3.24.28-12.61,3.49-17.92,11.44-18,6.69.13,9.85,3.77,11.07,12.37,0-.12,0-.24,0-.36-.3-12.61-3.57-17.92-11.74-18.05Z"/><polygon points="292.7 218.43 284.09 218.43 283.9 212.38 293.58 212.4 292.7 218.43"/><path d="M309.69,169.5h-4.63c-2.1,0-5.14,1.45-7.44,4a15,15,0,0,0-4.05,10.05v6h0a15.22,15.22,0,0,1,3.95-10.05c2.25-2.55,5.17-4,7.21-4h4.69l.26-6Z"/><path d="M342.69,198.1V186.21c-9,2.13-14.13,4.23-16.81,6.16-2.89,2.22-3.14,3.62-3.25,6.34A9,9,0,0,0,323,201a8.16,8.16,0,0,1,2.36-2.56c2.6-1.94,7.61-4,16.37-6.16v6.69c.33-.28.65-.55.95-.84Z"/><path d="M353.42,212.34v.06h-9.59l-.49-4a24.74,24.74,0,0,1-15.14,4.86H328a15.46,15.46,0,0,1-10.59-3.8,13.94,13.94,0,0,1-4.38-10l-.28,5.25v.09a14.23,14.23,0,0,0,4.3,10.67,14.93,14.93,0,0,0,10.37,3.81h.23a23.72,23.72,0,0,0,14.75-4.84l.48,3.93H352l1.54-6-.08-.08Z"/><path d="M322.15,182.17c3.14-5,6.88-7.5,11.49-7.53,5.1.24,6.81,1.07,7.68,3.21l1.64-.37V176c-.11-2.89-.57-4.59-1.67-5.58s-3.17-1.67-6.93-1.77c-4.75,0-8.57,2.5-11.78,7.54l-1.12,1.76-7-4.26-.05,6.19L321,184l1.11-1.81Z"/><path d="M407,168.22h-1.3a12.71,12.71,0,0,0-4.27.62,15.71,15.71,0,0,1,2,5.44l.48,0h2.1l1.94-6h-1Z"/><path d="M384.26,168.6c-6.66.2-9.84,3.51-10,9.93,0,.23,0,.4,0,.62,1.5-2.82,4.24-4.42,8.6-4.51,6.77.32,9.55,2.53,9.86,10,0,.06,0,.15,0,.23a12.52,12.52,0,0,0,1.55-6.26c-.31-7.43-3.14-9.65-10-10Z"/><path d="M369.46,190.85a16.8,16.8,0,0,1-4.86-11.74h0a.32.32,0,0,1,0-.14,20.37,20.37,0,0,1,.23-2.95l-.95,5.19a21.26,21.26,0,0,0-.34,3.81v.16a16.6,16.6,0,0,0,2.61,8.81,11.13,11.13,0,0,1,3.31-3.14Z"/><path d="M397.8,192.47c-3.79,3.09-8.8,4.37-14.1,4.37h0a22.59,22.59,0,0,1-7.44-1.3c-1.86.85-2.24,1.72-2.27,2.18s.05.55.07.63l0,0,.18.12a8.51,8.51,0,0,0,.8.37c1.51.54,5,.92,11.23.91h.08a50.18,50.18,0,0,1,7.27.48,16.75,16.75,0,0,0,2.59-1.74,15.93,15.93,0,0,0,5.11-7.86h0l1.68-5.89h0l0,0h0a15.69,15.69,0,0,1-5.14,7.76Z"/><path d="M367.6,205.92a7.35,7.35,0,0,1-3.28-6.36.81.81,0,0,1,0-.18,9,9,0,0,1,.08-.91h0l-1,5.37a12.5,12.5,0,0,0-.16,1.63v.1a7.83,7.83,0,0,0,.9,3.74,12.09,12.09,0,0,1,3.44-3.39Z"/><path d="M402.8,224.91c-3.87,2.71-9.62,4.19-17.91,4.2s-13.79-1.39-17.43-3.82a11.05,11.05,0,0,1-5.12-9.38v-.33c0-.51,0-1,.09-1.54l-1,5.35a12.23,12.23,0,0,0-.2,2.33v.22a11.18,11.18,0,0,0,5.12,9.39c3.57,2.45,9,3.83,17.12,3.84s13.55-1.5,17.32-4.2a12.52,12.52,0,0,0,4.65-6.07l2.16-6.19h0a12.56,12.56,0,0,1-4.77,6.2Z"/><path d="M398.68,214.56c-.11-1.48-.27-2.27-2.22-3.5h0c-1.94-1.14-5.9-2.13-12.65-2.11h-.1c-10.31.26-11.61,3.19-11.74,5.85a5.77,5.77,0,0,0,.25,1.46c1.84-1.31,4.95-2.23,10.13-2.29,6.82,0,10.87,1,13,2.25a6.25,6.25,0,0,1,1.71,1.46,3.69,3.69,0,0,0,1.57-3.12Z"/><path d="M433,173.53h.11c4.84.08,8.06,2.46,10,6.78h3.29c-1.49-7.8-4.76-11.57-11.06-11.73h-.24c-5.51-.07-8.93,4.36-10.4,9a10.35,10.35,0,0,1,8.26-4Z"/><path d="M456.45,189H424a30.49,30.49,0,0,0,1,6h24.48l.28-.45.84.45h2.92l3-6Z"/><path d="M457.3,199.73l-.6,1h0c-4.93,8.48-10.61,12.53-19.72,12.56h-.67c-6.54,0-12.25-2.18-16.13-6.77s-5.91-11.26-5.91-19.88a34.83,34.83,0,0,1,1.22-9.79l-1.62,5a38.93,38.93,0,0,0-1.43,10.72c0,8.63,2,15.3,5.78,19.89s9.36,6.77,15.71,6.78h.59c9,0,14.59-4.07,19.43-12.59l.59-1,3.24-6.73-.48.78Z"/><path class="cls-2" d="M191.27,194.61c0,12.94-11,20.07-22.57,20.06h-.53c-13.18,0-21.72-6.78-25.38-19.63l-.62-2,7.71-2.42,2.18-.68.25,1.05.3,1.15c2.66,9.65,7,12.95,17,13.19,7.39-.19,11-4.08,11.22-11.33-.07-3.78-1.65-5.84-4.7-7.94s-7.46-3.53-12-5.18c-9-3.17-19.54-7.59-19.56-20.35a19.16,19.16,0,0,1,5.65-14.1c3.75-3.58,9.16-5.6,15.77-5.6h.15c11.34,0,20.18,6.6,23.39,17.77l.61,2.07-9.37,2.83-.31-.95-.35-1.06c-2.36-6.95-6.52-11.17-14.08-11.26-7,.21-10.86,3.42-11,10.3,0,2,.1,3.21,1.56,4.76s4.62,3.4,10.69,5.78c18.64,6.79,24.11,12.75,24,23.27,0,.1,0,.21,0,.32Z"/><path class="cls-2" d="M225.83,167.91v1H215.42v33c0,1.38.22,2,.46,2.26s.83.5,2.23.5a17.47,17.47,0,0,0,4.92-.91l2.79-.88v9.4l-.87.13-.95.15a41.07,41.07,0,0,1-5.9.86c-4.07,0-7.18-.65-9.46-2.53s-3-4.8-3-8V169h-7.13v-8.74h7.13V144.55h9.76v15.67h10.4v7.69Z"/><path class="cls-2" d="M254,204.69c-8.16-.13-11.43-5.44-11.71-18.05.28-12.59,3.54-17.9,11.73-18,8.17.13,11.44,5.44,11.73,18-.29,12.6-3.56,17.92-11.75,18Zm16.87-36.3c-3.31-5.08-8.95-8.43-16.75-8.41h-.24c-7.79,0-13.44,3.35-16.74,8.41s-4.51,11.6-4.51,18.25,1.19,13.2,4.51,18.25,9,8.43,16.76,8.42h.22c7.79,0,13.43-3.35,16.72-8.43h0c3.33-5.06,4.49-11.6,4.52-18.26s-1.16-13.14-4.49-18.23Z"/><path class="cls-2" d="M309.69,168.5v1h-4.63c-2.1,0-5.14,1.44-7.44,4a15,15,0,0,0-4.05,10v28.85h-9.64V160.89h9.64v4.32A16,16,0,0,1,305.13,160h4.56v8.52Z"/><path class="cls-2" d="M342.69,198.11c-4.22,4.11-9.76,6.6-13.76,6.57h0c-4.08-.2-6.07-1.82-6.24-6,.1-2.73.36-4.12,3.25-6.34,2.67-1.94,7.82-4,16.81-6.17v11.89ZM353,209.92a50.36,50.36,0,0,1-.68-8.28v-25c0-5.4-1.41-9.72-4.52-12.61S340.14,160,334.56,160h-.16c-8.09,0-14.83,3.69-19.08,11.86l-.48.94-.45.84,7.09,4.31,1.13-1.77c3.21-5.05,7-7.51,11.78-7.54,3.77.11,5.86.73,6.93,1.76s1.56,2.71,1.67,5.59v1.53c-9,2-16,3.64-21.2,6.45A15.59,15.59,0,0,0,313,198.66v.16h0v0a14.12,14.12,0,0,0,4.4,10.66A15.38,15.38,0,0,0,328,213.3h.2a24.75,24.75,0,0,0,15.14-4.85l.49,4h9.59l-.4-2.48Z"/><path class="cls-2" d="M395.83,218.55c-2.18,1.15-6.09,2-11.7,2H384c-4.58,0-7.78-.79-9.6-1.87s-2.35-2.18-2.42-3.81c.13-2.66,1.43-5.59,11.74-5.86h.1c6.75,0,10.71,1,12.65,2.11h0c2,1.24,2.12,2,2.22,3.52-.08,1.67-.59,2.68-2.85,4Zm-11.57-49.94c6.88.32,9.71,2.54,10,10-.31,7.27-3.08,9.32-10,9.67-5.89-.23-9.85-2.64-10-9.7.2-6.43,3.37-9.75,10-9.95Zm24.06,45.47v0a12.22,12.22,0,0,0-5.64-10.68c-3.77-2.45-9.14-3.57-16.36-3.59h-.08c-6.19,0-9.74-.37-11.23-.91a6.13,6.13,0,0,1-.81-.37.91.91,0,0,1-.17-.12h0a5.4,5.4,0,0,1-.06-.62c0-.47.41-1.32,2.27-2.18a22.8,22.8,0,0,0,7.44,1.3h0c5.29,0,10.31-1.29,14.09-4.38s6.11-7.94,6.11-14.24v-.16a16.86,16.86,0,0,0-2.42-9.23,12.64,12.64,0,0,1,4.27-.61h2.31v-9.18H406a15.65,15.65,0,0,0-10.07,3.67A20.68,20.68,0,0,0,385.3,160h-.05c-6.06,0-11.23,1.79-14.91,5.17a18.26,18.26,0,0,0-5.7,13.83.26.26,0,0,0,0,.13h0a16.86,16.86,0,0,0,4.86,11.75,10.38,10.38,0,0,0-5.13,8.54.86.86,0,0,0,0,.18,7.41,7.41,0,0,0,3.28,6.36,11.09,11.09,0,0,0-5.26,9.63v.34a11,11,0,0,0,5.13,9.37c3.63,2.44,9.13,3.83,17.42,3.84s14.05-1.48,17.91-4.2a12.68,12.68,0,0,0,5.52-10.66v-.2Z"/><path class="cls-2" d="M435.16,168.61h.24c6.3.16,9.58,3.93,11.06,11.72H424.09c.84-5.41,4.45-11.8,11.07-11.73Zm14.57,25.86-1.06,1.68c-4.83,7.34-6.43,8.37-11.89,8.54-8.38,0-12.14-6.47-12.8-15.73h32.47v-2.12c0-7.6-1.55-14.22-5-19.09S442.56,160,435.7,160h-.12a19.31,19.31,0,0,0-15.72,7.6c-3.7,4.79-5.6,11.39-5.61,19.07,0,8.63,2,15.31,5.91,19.89s9.6,6.78,16.13,6.77H437c9.1,0,14.77-4.1,19.71-12.56h0l.6-1,.55-.91-8.09-4.35Z"/></svg>