<?xml version="1.0" encoding="UTF-8"?> <!-- Generator: Adobe Illustrator 21.1.0, SVG Export Plug-In . SVG Version: 6.00 Build 0) --> <svg xmlns="http://www.w3.org/2000/svg" xmlns:xlink="http://www.w3.org/1999/xlink" version="1.1" id="Layer_1" x="0px" y="0px" viewBox="0 0 150.3 57.9" style="enable-background:new 0 0 150.3 57.9;" xml:space="preserve"> <style type="text/css"> .st0{fill:#0081C6;} </style> <g> <path class="st0" d="M38.7,8.1C42.4,3.3,48.3,0,54.9,0c11.2,0,20.2,9.1,20.2,20.2c0,11.2-9,20.2-20.2,20.2 c-11.2,0-20.2-9.1-20.2-20.2c0-2,0.2-3,0.6-5.1c0.4-1.9,2.2-3,4-3c2.2,0,4.5,2,3.9,5.1c-0.2,1-0.4,2-0.4,3 c0,6.8,5.4,12.1,12.1,12.1C61.6,32.4,67,27,67,20.2c0-6.8-5.4-12.1-12.1-12.1L38.7,8.1z"></path> <g> <path class="st0" d="M8.1,36.4c0,2.2-1.8,4-4,4c-2.2,0-4-1.8-4-4V16.2c0-2.2,1.8-4,4-4c2.2,0,4,1.8,4,4V36.4z"></path> <path class="st0" d="M23.7,11.5c0.4-0.4,0.6-0.9,0.6-1.4c0-1.1-0.9-2-2-2l-18.2,0c-2.2,0-4-1.8-4-4c0-2.2,1.8-4,4-4l18.2,0 c5.6,0,10.1,4.5,10.1,10.1c0,3-1.3,5.7-3.4,7.6l-9.7,9.7c-0.6,0.5-0.9,1.2-0.9,2.1c0,1.6,1.3,2.9,2.9,2.9l7,0c2.2,0,4,1.8,4,4 c0,2.2-1.8,4-4,4l-7,0c-6.1,0-11-5-11-11.1c0-3.2,1.5-6,3.3-7.8L23.7,11.5z"></path> </g> <path class="st0" d="M118.4,19.6c-3.8-1.5-6.4-5.1-6.4-9.4C112,4.5,116.5,0,122.1,0l18.2,0c2.2,0,4,1.8,4,4c0,2.3-1.8,4-4,4 l-18.2,0c-1.1,0-2,0.9-2,2c0,0.8,0.5,1.5,1.2,1.8l16,7.3c4.1,1.6,7.1,5.6,7.1,10.3c0,6.1-4.9,11-11,11l-17.3,0c-2.2,0-4-1.8-4-4 c0-2.2,1.8-4,4-4l17.3,0c1.6,0,2.9-1.3,2.9-2.9c0-1.3-0.8-2.3-2-2.8L118.4,19.6z"></path> <path class="st0" d="M83.8,19.6c-3.8-1.5-6.4-5.1-6.4-9.4C77.4,4.5,81.9,0,87.5,0l18.2,0c2.2,0,4,1.8,4,4c0,2.3-1.8,4-4,4l-18.2,0 c-1.1,0-2,0.9-2,2c0,0.8,0.5,1.5,1.2,1.8l16,7.3c4.1,1.6,7.1,5.6,7.1,10.3c0,6.1-4.9,11-11,11l-17.3,0c-2.2,0-4-1.8-4-4 c0-2.2,1.8-4,4-4l17.3,0c1.6,0,2.9-1.3,2.9-2.9c0-1.3-0.8-2.3-2-2.8L83.8,19.6z"></path> <g> <path class="st0" d="M2.5,55.5H4c2,0,3.6-1.6,3.6-3.6c0-2-1.6-3.6-3.6-3.6H1.3c-0.7,0-1.2-0.5-1.2-1.2c0-0.7,0.5-1.2,1.2-1.2 l2.7,0c3.3,0,6,2.7,6,6c0,3.3-2.7,6-6,6l-2.7,0c-0.7,0-1.2-0.5-1.2-1.2v-6c0-0.7,0.5-1.2,1.2-1.2s1.2,0.5,1.2,1.2L2.5,55.5z"></path> <path class="st0" d="M24.7,55.5h5.3c0.7,0,1.2,0.5,1.2,1.2c0,0.7-0.5,1.2-1.2,1.2h-6.5c-0.7,0-1.2-0.5-1.2-1.2v-6 c0-0.7,0.5-1.2,1.2-1.2h6.5c0.7,0,1.2,0.5,1.2,1.2c0,0.7-0.5,1.2-1.2,1.2h-5.3V55.5z"></path> <path class="st0" d="M30,48.3c0.7,0,1.2-0.5,1.2-1.2c0-0.7-0.5-1.2-1.2-1.2h-6.5c-0.7,0-1.2,0.5-1.2,1.2c0,0.7,0.5,1.2,1.2,1.2H30 z"></path> <path class="st0" d="M116,55.5h5.3c0.7,0,1.2,0.5,1.2,1.2c0,0.7-0.5,1.2-1.2,1.2h-6.5c-0.7,0-1.2-0.5-1.2-1.2v-6 c0-0.7,0.5-1.2,1.2-1.2h6.5c0.7,0,1.2,0.5,1.2,1.2c0,0.7-0.5,1.2-1.2,1.2H116V55.5z"></path> <path class="st0" d="M121.3,48.3c0.7,0,1.2-0.5,1.2-1.2c0-0.7-0.5-1.2-1.2-1.2h-6.5c-0.7,0-1.2,0.5-1.2,1.2c0,0.7,0.5,1.2,1.2,1.2 H121.3z"></path> <path class="st0" d="M69.3,48.3c0.7,0,1.2-0.5,1.2-1.2c0-0.7-0.5-1.2-1.2-1.2h-6.5c-0.7,0-1.2,0.5-1.2,1.2c0,0.7,0.5,1.2,1.2,1.2 H69.3z"></path> <path class="st0" d="M105.7,55.5h5.3c0.7,0,1.2,0.5,1.2,1.2c0,0.7-0.5,1.2-1.2,1.2h-6.5c-0.7,0-1.2-0.5-1.2-1.2v-9.6 c0-0.7,0.5-1.2,1.2-1.2c0.7,0,1.2,0.5,1.2,1.2V55.5z"></path> <path class="st0" d="M64,51.9l5.3,0c0.7,0,1.2-0.5,1.2-1.2c0-0.7-0.5-1.2-1.2-1.2h-6.5c-1.3,0-1.2,1.4-1.2,1.2v6 c0,0.7,0.5,1.2,1.2,1.2c0.7,0,1.2-0.5,1.2-1.2V51.9z"></path> <g> <path class="st0" d="M13.7,56.7c0,0.7-0.5,1.2-1.2,1.2c-0.7,0-1.2-0.5-1.2-1.2v-6c0-0.7,0.5-1.2,1.2-1.2c0.7,0,1.2,0.5,1.2,1.2 V56.7z"></path> </g> <g> <path class="st0" d="M18.4,49.3c0.1-0.1,0.2-0.3,0.2-0.4c0-0.3-0.3-0.6-0.6-0.6h-5.4c-0.7,0-1.2-0.5-1.2-1.2 c0-0.7,0.5-1.2,1.2-1.2h5.4c1.7,0,3,1.3,3,3c0,0.9-0.4,1.7-1,2.2L17.1,54c-0.2,0.2-0.3,0.4-0.3,0.6c0,0.5,0.4,0.9,0.9,0.9l2.1,0 c0.7,0,1.2,0.5,1.2,1.2c0,0.7-0.5,1.2-1.2,1.2l-2.1,0c-1.8,0-3.3-1.5-3.3-3.3c0-0.9,0.5-1.8,1-2.3L18.4,49.3z"></path> </g> <g> <path class="st0" d="M87.3,56.7c0,0.7-0.5,1.2-1.2,1.2s-1.2-0.5-1.2-1.2v-6c0-0.7,0.5-1.2,1.2-1.2s1.2,0.5,1.2,1.2V56.7z"></path> </g> <g> <path class="st0" d="M92,49.3c0.1-0.1,0.2-0.3,0.2-0.4c0-0.3-0.3-0.6-0.6-0.6h-5.4c-0.7,0-1.2-0.5-1.2-1.2c0-0.7,0.5-1.2,1.2-1.2 h5.4c1.7,0,3,1.4,3,3c0,0.9-0.4,1.7-1,2.2L90.7,54c-0.2,0.2-0.3,0.4-0.3,0.6c0,0.5,0.4,0.9,0.9,0.9l2.1,0c0.7,0,1.2,0.5,1.2,1.2 c0,0.7-0.5,1.2-1.2,1.2l-2.1,0c-1.8,0-3.3-1.5-3.3-3.3c0-0.9,0.5-1.8,1-2.3L92,49.3z"></path> </g> <path class="st0" d="M34.5,51.7c-1.1-0.4-1.9-1.5-1.9-2.8c0-1.7,1.4-3,3-3H41c0.7,0,1.2,0.5,1.2,1.2c0,0.7-0.5,1.2-1.2,1.2l-5.4,0 c-0.3,0-0.6,0.3-0.6,0.6c0,0.2,0.1,0.5,0.4,0.6l4.8,2.2c1.2,0.5,2.1,1.7,2.1,3.1c0,1.8-1.5,3.3-3.3,3.3l-5.1,0 c-0.7,0-1.2-0.5-1.2-1.2c0-0.7,0.5-1.2,1.2-1.2l5.1,0c0.5,0,0.9-0.4,0.9-0.9c0-0.4-0.2-0.7-0.6-0.8L34.5,51.7z"></path> <path class="st0" d="M45.5,51.7c-1.1-0.4-1.9-1.5-1.9-2.8c0-1.7,1.3-3,3-3H52c0.7,0,1.2,0.5,1.2,1.2c0,0.7-0.5,1.2-1.2,1.2l-5.4,0 c-0.3,0-0.6,0.3-0.6,0.6c0,0.2,0.1,0.5,0.4,0.6l4.8,2.2c1.2,0.5,2.1,1.7,2.1,3.1c0,1.8-1.5,3.3-3.3,3.3l-5.1,0 c-0.7,0-1.2-0.5-1.2-1.2c0-0.7,0.5-1.2,1.2-1.2l5.1,0c0.5,0,0.9-0.4,0.9-0.9c0-0.4-0.2-0.7-0.6-0.8L45.5,51.7z"></path> <path class="st0" d="M125.7,51.7c-1.1-0.4-1.9-1.5-1.9-2.8c0-1.7,1.4-3,3-3h5.4c0.7,0,1.2,0.5,1.2,1.2c0,0.7-0.5,1.2-1.2,1.2 l-5.4,0c-0.3,0-0.6,0.3-0.6,0.6c0,0.2,0.1,0.5,0.4,0.6l4.8,2.2c1.2,0.5,2.1,1.7,2.1,3.1c0,1.8-1.5,3.3-3.3,3.3l-5.1,0 c-0.7,0-1.2-0.5-1.2-1.2c0-0.7,0.5-1.2,1.2-1.2l5.1,0c0.5,0,0.9-0.4,0.9-0.9c0-0.4-0.2-0.7-0.6-0.8L125.7,51.7z"></path> <path class="st0" d="M136.7,51.7c-1.1-0.4-1.9-1.5-1.9-2.8c0-1.7,1.3-3,3-3h5.4c0.7,0,1.2,0.5,1.2,1.2c0,0.7-0.5,1.2-1.2,1.2 l-5.4,0c-0.3,0-0.6,0.3-0.6,0.6c0,0.2,0.1,0.5,0.4,0.5l4.8,2.2c1.2,0.5,2.1,1.7,2.1,3.1c0,1.8-1.5,3.3-3.3,3.3l-5.1,0 c-0.7,0-1.2-0.5-1.2-1.2c0-0.7,0.5-1.2,1.2-1.2l5.1,0c0.5,0,0.9-0.4,0.9-0.9c0-0.4-0.2-0.7-0.6-0.8L136.7,51.7z"></path> <path class="st0" d="M72.8,48.3c1.1-1.4,2.9-2.4,4.8-2.4c3.3,0,6,2.7,6,6c0,3.3-2.7,6-6,6c-3.3,0-6-2.7-6-6c0-0.6,0.1-0.9,0.2-1.5 c0.1-0.6,0.7-0.9,1.2-0.9c0.7,0,1.3,0.6,1.2,1.5C74,51.3,74,51.6,74,51.9c0,2,1.6,3.6,3.6,3.6c2,0,3.6-1.6,3.6-3.6 c0-2-1.6-3.6-3.6-3.6L72.8,48.3z"></path> </g> <g> <path class="st0" d="M149.6,50c-0.5,0.5-1.1,0.7-1.7,0.7c-0.7,0-1.3-0.2-1.8-0.7c-0.5-0.5-0.7-1.1-0.7-1.8c0-0.7,0.3-1.3,0.8-1.8 c0.5-0.5,1.1-0.7,1.7-0.7c0.7,0,1.3,0.2,1.8,0.7c0.5,0.5,0.7,1.1,0.7,1.8C150.3,48.9,150.1,49.5,149.6,50z M146.4,46.7 c-0.4,0.4-0.6,0.9-0.6,1.4c0,0.6,0.2,1.1,0.6,1.5c0.4,0.4,0.9,0.6,1.5,0.6c0.6,0,1-0.2,1.4-0.6c0.4-0.4,0.6-0.9,0.6-1.5 c0-0.6-0.2-1-0.6-1.4c-0.4-0.4-0.9-0.6-1.4-0.6C147.3,46.1,146.8,46.3,146.4,46.7z M146.7,49.6v-2.8c0.2,0,0.4,0,0.8,0 c0.3,0,0.5,0,0.6,0c0.2,0,0.4,0.1,0.5,0.1c0.2,0.1,0.4,0.4,0.4,0.7c0,0.2-0.1,0.4-0.2,0.5c-0.1,0.1-0.3,0.2-0.5,0.2 c0.2,0,0.3,0.1,0.4,0.2c0.2,0.1,0.2,0.3,0.2,0.6v0.2c0,0,0,0.1,0,0.1c0,0,0,0.1,0,0.1l0,0.1h-0.7c0-0.1,0-0.2,0-0.4 c0-0.2,0-0.3,0-0.3c0-0.1-0.1-0.2-0.2-0.2c-0.1,0-0.1,0-0.2,0l-0.2,0h-0.2v1H146.7z M148.1,47.4c-0.1,0-0.2-0.1-0.4-0.1h-0.2v0.8 h0.3c0.2,0,0.3,0,0.4-0.1c0.1-0.1,0.1-0.2,0.1-0.3C148.3,47.5,148.2,47.4,148.1,47.4z"></path> </g> </g> </svg> 